<svg 
 xmlns="http://www.w3.org/2000/svg"
 xmlns:xlink="http://www.w3.org/1999/xlink"
 width="29px" height="31px">
<path fill-rule="evenodd"  fill="rgb(116, 188, 64)"
 d="M26.842,31.000 L2.158,31.000 C0.966,31.000 0.000,30.041 0.000,28.858 L0.000,5.893 C0.000,4.710 0.966,3.751 2.158,3.751 L4.531,3.751 L4.531,2.142 C4.531,0.959 5.497,0.000 6.689,0.000 L6.775,0.000 C7.967,0.000 8.933,0.959 8.933,2.142 L8.933,3.751 L20.067,3.751 L20.067,2.142 C20.067,0.959 21.033,0.000 22.225,0.000 L22.311,0.000 C23.503,0.000 24.469,0.959 24.469,2.142 L24.469,3.751 L26.842,3.751 C28.034,3.751 29.000,4.710 29.000,5.893 L29.000,28.858 C29.000,30.041 28.034,31.000 26.842,31.000 ZM25.375,10.220 L3.625,10.220 L3.625,27.615 L25.375,27.615 L25.375,10.220 ZM6.581,13.679 L10.335,13.679 C10.526,13.679 10.681,13.833 10.681,14.022 L10.681,17.749 C10.681,17.939 10.526,18.092 10.335,18.092 L6.581,18.092 C6.391,18.092 6.236,17.939 6.236,17.749 L6.236,14.022 C6.236,13.833 6.391,13.679 6.581,13.679 ZM6.581,19.677 L10.335,19.677 C10.526,19.677 10.681,19.831 10.681,20.020 L10.681,23.748 C10.681,23.937 10.526,24.090 10.335,24.090 L6.581,24.090 C6.391,24.090 6.236,23.937 6.236,23.748 L6.236,20.020 C6.236,19.831 6.391,19.677 6.581,19.677 ZM12.623,13.679 L16.377,13.679 C16.568,13.679 16.722,13.833 16.722,14.022 L16.722,17.749 C16.722,17.939 16.568,18.092 16.377,18.092 L12.623,18.092 C12.432,18.092 12.278,17.939 12.278,17.749 L12.278,14.022 C12.278,13.833 12.432,13.679 12.623,13.679 ZM12.623,19.677 L16.377,19.677 C16.568,19.677 16.722,19.831 16.722,20.020 L16.722,23.748 C16.722,23.937 16.568,24.090 16.377,24.090 L12.623,24.090 C12.432,24.090 12.278,23.937 12.278,23.748 L12.278,20.020 C12.278,19.831 12.432,19.677 12.623,19.677 ZM18.665,13.679 L22.419,13.679 C22.609,13.679 22.764,13.833 22.764,14.022 L22.764,17.749 C22.764,17.939 22.609,18.092 22.419,18.092 L18.665,18.092 C18.474,18.092 18.319,17.939 18.319,17.749 L18.319,14.022 C18.319,13.833 18.474,13.679 18.665,13.679 ZM18.665,19.677 L22.419,19.677 C22.609,19.677 22.764,19.831 22.764,20.020 L22.764,23.748 C22.764,23.937 22.609,24.090 22.419,24.090 L18.665,24.090 C18.474,24.090 18.319,23.937 18.319,23.748 L18.319,20.020 C18.319,19.831 18.474,19.677 18.665,19.677 Z"/>
</svg>