<svg 
 xmlns="http://www.w3.org/2000/svg"
 xmlns:xlink="http://www.w3.org/1999/xlink"
 width="60px" height="69px">
<path fill-rule="evenodd"  fill="rgb(118, 118, 118)"
 d="M56.437,44.082 C56.012,45.834 55.597,47.547 55.222,49.207 L54.887,50.714 C53.938,55.007 52.955,59.447 50.666,63.433 C49.412,65.614 48.001,66.645 46.472,66.486 C43.569,66.190 41.730,61.726 40.316,57.398 L42.539,56.681 C44.697,63.282 46.175,64.122 46.710,64.177 C47.195,64.205 47.925,63.519 48.635,62.281 C50.748,58.604 51.691,54.340 52.603,50.215 L52.941,48.698 C53.317,47.028 53.736,45.302 54.162,43.539 C56.487,33.949 59.120,23.081 56.685,13.941 C55.879,10.911 53.434,7.964 49.800,5.644 C45.352,2.803 38.993,2.516 33.205,4.892 L33.014,4.974 C32.851,5.044 32.690,5.112 32.526,5.169 C32.013,5.346 31.623,5.496 31.303,5.619 C36.643,9.425 36.652,12.552 36.628,19.192 L36.624,20.717 C36.624,21.359 36.100,21.878 35.455,21.878 C34.810,21.878 34.287,21.359 34.287,20.717 L34.290,19.184 C34.319,11.609 34.321,9.777 26.811,5.539 C22.457,4.273 16.239,2.798 11.922,4.318 C3.882,7.148 1.474,16.274 2.655,24.064 C2.872,25.500 3.084,26.948 3.298,28.404 C4.810,38.731 6.375,49.411 10.338,58.916 L10.479,59.259 C11.029,60.587 12.444,64.010 13.769,64.338 C15.257,63.587 15.957,62.056 16.705,60.149 L18.883,60.993 C18.144,62.876 17.132,65.456 14.426,66.594 L14.208,66.686 L13.970,66.686 C11.023,66.686 9.329,62.589 8.317,60.141 L8.178,59.806 C4.103,50.031 2.518,39.206 0.985,28.737 C0.773,27.286 0.561,25.840 0.344,24.408 C-1.493,12.289 4.444,4.486 11.141,2.129 C16.087,0.388 22.537,1.868 27.604,3.351 C29.378,3.870 29.379,3.871 30.458,3.455 C30.798,3.324 31.215,3.164 31.759,2.976 C31.866,2.938 31.975,2.891 32.086,2.843 L32.314,2.747 C38.797,0.084 45.983,0.445 51.065,3.692 C55.191,6.326 57.990,9.756 58.946,13.348 C61.531,23.054 58.824,34.226 56.437,44.082 ZM21.430,43.411 C21.314,43.448 21.194,43.466 21.076,43.466 C20.581,43.466 20.120,43.151 19.963,42.656 C19.767,42.045 20.107,41.392 20.722,41.198 L22.245,40.717 L22.245,36.500 L22.245,34.178 L22.245,29.053 L26.436,24.890 L34.416,24.890 L38.607,29.053 L38.607,34.178 L38.607,35.664 L39.407,35.399 C40.020,35.194 40.682,35.526 40.885,36.133 C41.090,36.742 40.759,37.399 40.147,37.601 L38.609,38.111 L38.609,42.630 L39.408,42.365 C40.022,42.160 40.683,42.492 40.886,43.099 C41.091,43.708 40.760,44.365 40.148,44.568 L38.610,45.077 L38.610,49.596 L39.409,49.331 C40.023,49.126 40.684,49.458 40.888,50.065 C41.092,50.673 40.761,51.331 40.145,51.535 L38.607,52.044 L38.607,59.722 L36.270,59.722 L36.270,63.592 L32.179,69.010 L28.673,69.010 L24.583,63.592 L24.583,59.722 L22.245,59.722 L22.245,57.089 L21.430,57.346 C21.314,57.383 21.194,57.400 21.076,57.400 C20.581,57.400 20.120,57.085 19.963,56.591 C19.767,55.979 20.107,55.327 20.722,55.133 L22.245,54.652 L22.245,50.122 L21.430,50.378 C21.314,50.415 21.194,50.433 21.076,50.433 C20.581,50.433 20.120,50.118 19.963,49.624 C19.767,49.012 20.107,48.359 20.722,48.165 L22.245,47.685 L22.245,43.155 L21.430,43.411 ZM24.585,39.984 L28.906,38.621 C29.519,38.425 30.178,38.764 30.374,39.375 C30.569,39.987 30.229,40.640 29.614,40.834 L24.585,42.420 L24.585,46.949 L28.906,45.586 C29.519,45.389 30.178,45.729 30.374,46.340 C30.569,46.952 30.229,47.605 29.614,47.798 L24.585,49.384 L24.585,53.913 L28.906,52.551 C29.519,52.354 30.178,52.693 30.374,53.305 C30.569,53.917 30.229,54.569 29.614,54.763 L24.585,56.349 L24.585,57.398 L26.922,57.398 L26.922,62.816 L29.844,66.686 L31.013,66.686 L33.935,62.816 L33.935,57.398 L36.272,57.398 L36.275,57.398 L36.275,52.823 L34.306,53.475 C34.184,53.515 34.059,53.535 33.937,53.535 C33.447,53.535 32.992,53.227 32.828,52.741 C32.623,52.131 32.954,51.474 33.567,51.272 L36.273,50.376 L36.273,45.856 L34.305,46.507 C34.183,46.548 34.058,46.568 33.936,46.568 C33.446,46.568 32.990,46.260 32.827,45.774 C32.622,45.164 32.953,44.507 33.565,44.305 L36.272,43.409 L36.272,38.889 L34.304,39.540 C34.181,39.581 34.056,39.601 33.935,39.601 C33.445,39.601 32.989,39.293 32.826,38.806 C32.621,38.197 32.952,37.540 33.564,37.338 L36.084,36.503 L24.585,36.503 L24.585,39.984 ZM24.585,34.178 L36.272,34.178 L36.272,30.014 L33.451,27.212 L27.406,27.212 L24.585,30.014 L24.585,34.178 Z"/>
</svg>