<svg 
 xmlns="http://www.w3.org/2000/svg"
 xmlns:xlink="http://www.w3.org/1999/xlink"
 width="21px" height="21px">
<path fill-rule="evenodd"  fill="rgb(116, 188, 64)"
 d="M20.549,18.674 L15.068,13.168 C16.047,11.791 16.634,10.119 16.634,8.350 C16.634,3.729 12.914,-0.008 8.313,-0.008 C3.713,-0.008 -0.007,3.729 -0.007,8.350 C-0.007,12.971 3.713,16.708 8.313,16.708 C10.076,16.708 11.740,16.118 13.110,15.134 L18.592,20.640 C19.081,21.132 19.962,21.132 20.549,20.640 L20.549,20.640 C21.137,20.051 21.137,19.264 20.549,18.674 ZM8.313,14.741 C4.790,14.741 1.951,11.890 1.951,8.350 C1.951,4.809 4.790,1.958 8.313,1.958 C11.837,1.958 14.676,4.809 14.676,8.350 C14.676,11.890 11.837,14.741 8.313,14.741 Z"/>
</svg>