<svg 
 xmlns="http://www.w3.org/2000/svg"
 xmlns:xlink="http://www.w3.org/1999/xlink"
 width="29px" height="29px">
<path fill-rule="evenodd"  fill="rgb(116, 188, 64)"
 d="M14.500,29.000 C6.505,29.000 0.000,22.495 0.000,14.500 C0.000,6.505 6.505,-0.000 14.500,-0.000 C22.495,-0.000 29.000,6.505 29.000,14.500 C29.000,22.495 22.495,29.000 14.500,29.000 ZM14.500,2.806 C8.052,2.806 2.807,8.052 2.807,14.500 C2.807,20.948 8.052,26.194 14.500,26.194 C20.948,26.194 26.194,20.948 26.194,14.500 C26.194,8.052 20.948,2.806 14.500,2.806 ZM12.161,8.887 L14.968,8.887 L14.968,14.032 L20.113,14.032 L20.113,16.839 L12.161,16.839 L12.161,8.887 Z"/>
</svg>