<svg 
 xmlns="http://www.w3.org/2000/svg"
 xmlns:xlink="http://www.w3.org/1999/xlink"
 width="20px" height="20px">
<path fill-rule="evenodd"  fill="rgb(116, 188, 64)"
 d="M19.990,15.784 C20.032,16.109 19.934,16.391 19.694,16.632 L16.878,19.427 C16.751,19.569 16.585,19.689 16.380,19.788 C16.176,19.887 15.974,19.950 15.777,19.979 C15.763,19.979 15.720,19.982 15.650,19.989 C15.579,19.997 15.488,20.000 15.375,20.000 C15.106,20.000 14.672,19.954 14.072,19.862 C13.472,19.770 12.739,19.544 11.871,19.184 C11.002,18.824 10.018,18.284 8.917,17.564 C7.816,16.843 6.644,15.855 5.402,14.598 C4.414,13.623 3.596,12.691 2.946,11.801 C2.297,10.911 1.775,10.088 1.380,9.332 C0.984,8.577 0.688,7.892 0.490,7.278 C0.293,6.663 0.159,6.133 0.088,5.688 C0.017,5.244 -0.011,4.894 0.003,4.640 C0.017,4.385 0.024,4.244 0.024,4.216 C0.053,4.018 0.116,3.817 0.215,3.612 C0.314,3.408 0.434,3.242 0.575,3.114 L3.391,0.297 C3.589,0.099 3.814,-0.000 4.068,-0.000 C4.252,-0.000 4.414,0.053 4.555,0.159 C4.696,0.265 4.817,0.396 4.915,0.551 L7.181,4.852 C7.308,5.078 7.343,5.325 7.287,5.594 C7.230,5.862 7.110,6.088 6.927,6.271 L5.889,7.309 C5.861,7.338 5.836,7.383 5.815,7.447 C5.794,7.511 5.783,7.563 5.783,7.606 C5.840,7.903 5.967,8.242 6.164,8.623 C6.334,8.962 6.595,9.375 6.948,9.862 C7.301,10.349 7.802,10.911 8.451,11.546 C9.086,12.196 9.651,12.701 10.145,13.061 C10.639,13.422 11.052,13.687 11.383,13.856 C11.715,14.025 11.969,14.128 12.146,14.163 L12.410,14.216 C12.438,14.216 12.485,14.206 12.548,14.184 C12.612,14.163 12.657,14.138 12.686,14.110 L13.892,12.881 C14.147,12.655 14.443,12.542 14.782,12.542 C15.022,12.542 15.212,12.585 15.353,12.670 L15.374,12.670 L19.461,15.085 C19.757,15.268 19.934,15.502 19.990,15.784 Z"/>
</svg>