<svg 
 xmlns="http://www.w3.org/2000/svg"
 xmlns:xlink="http://www.w3.org/1999/xlink"
 width="53px" height="56px">
<path fill-rule="evenodd" fill="rgb(255, 255, 255)"
 d="M49.217,52.241 C49.042,52.413 48.817,52.500 48.592,52.500 C48.355,52.500 48.118,52.405 47.941,52.216 L34.508,37.885 C31.229,40.674 27.022,42.355 22.438,42.355 C11.994,42.355 3.498,33.640 3.498,22.928 C3.498,12.215 11.994,3.501 22.438,3.501 C32.881,3.501 41.377,12.215 41.377,22.928 C41.377,28.274 39.259,33.121 35.841,36.638 L49.242,50.933 C49.586,51.301 49.576,51.887 49.217,52.241 ZM39.573,22.928 C39.573,13.235 31.886,5.351 22.438,5.351 C12.989,5.351 5.302,13.235 5.302,22.928 C5.302,32.620 12.989,40.504 22.438,40.504 C31.886,40.504 39.573,32.620 39.573,22.928 ZM28.751,23.853 L23.339,23.853 L23.339,29.403 C23.339,29.914 22.935,30.328 22.438,30.328 C21.940,30.328 21.536,29.914 21.536,29.403 L21.536,23.853 L16.124,23.853 C15.627,23.853 15.223,23.438 15.223,22.928 C15.223,22.417 15.627,22.003 16.124,22.003 L21.536,22.003 L21.536,16.452 C21.536,15.941 21.940,15.527 22.438,15.527 C22.935,15.527 23.339,15.941 23.339,16.452 L23.339,22.003 L28.751,22.003 C29.248,22.003 29.652,22.417 29.652,22.928 C29.652,23.438 29.248,23.853 28.751,23.853 Z"/>
</svg>