<svg 
 xmlns="http://www.w3.org/2000/svg"
 xmlns:xlink="http://www.w3.org/1999/xlink"
 width="13px" height="10px">
<path fill-rule="evenodd"  fill="rgb(116, 188, 64)"
 d="M12.659,9.686 C12.432,9.896 12.158,10.001 11.839,10.001 L1.161,10.001 C0.841,10.001 0.568,9.896 0.341,9.686 C0.114,9.475 -0.000,9.223 -0.000,8.927 L-0.000,3.599 C0.213,3.818 0.457,4.013 0.733,4.183 C2.483,5.283 3.685,6.055 4.338,6.498 C4.614,6.686 4.837,6.832 5.009,6.937 C5.181,7.043 5.409,7.150 5.695,7.260 C5.980,7.369 6.246,7.424 6.493,7.424 L6.500,7.424 L6.507,7.424 C6.754,7.424 7.020,7.369 7.305,7.260 C7.591,7.150 7.819,7.043 7.991,6.937 C8.163,6.832 8.386,6.686 8.662,6.498 C9.484,5.947 10.688,5.176 12.274,4.183 C12.550,4.008 12.792,3.813 13.000,3.599 L13.000,8.927 C13.000,9.223 12.886,9.475 12.659,9.686 ZM11.759,3.464 C9.941,4.632 8.809,5.359 8.364,5.646 C8.316,5.677 8.213,5.745 8.056,5.850 C7.899,5.955 7.768,6.041 7.664,6.105 C7.560,6.170 7.435,6.243 7.287,6.323 C7.140,6.404 7.001,6.464 6.870,6.504 C6.739,6.545 6.619,6.565 6.507,6.565 L6.500,6.565 L6.493,6.565 C6.381,6.565 6.261,6.545 6.130,6.504 C5.999,6.464 5.860,6.404 5.713,6.323 C5.565,6.243 5.439,6.170 5.335,6.105 C5.232,6.041 5.101,5.955 4.944,5.850 C4.787,5.745 4.684,5.677 4.636,5.646 C4.195,5.359 3.562,4.951 2.735,4.421 C1.908,3.891 1.412,3.572 1.248,3.464 C0.948,3.277 0.665,3.018 0.399,2.690 C0.133,2.360 -0.000,2.055 -0.000,1.773 C-0.000,1.424 0.100,1.134 0.301,0.901 C0.502,0.668 0.788,0.552 1.161,0.552 L11.839,0.552 C12.153,0.552 12.426,0.657 12.655,0.867 C12.885,1.077 13.000,1.330 13.000,1.626 C13.000,1.979 12.881,2.317 12.644,2.639 C12.407,2.961 12.112,3.236 11.759,3.464 Z"/>
</svg>